<svg width="15" height="14" viewBox="0 0 15 14" fill="none" xmlns="http://www.w3.org/2000/svg">
<path d="M5.30852 14C4.69872 13.9785 4.09925 13.8365 3.54482 13.5824C2.99039 13.3283 2.49201 12.9671 2.07852 12.5197C1.65745 12.1356 1.31641 11.6725 1.07489 11.157C0.833378 10.6414 0.696121 10.0834 0.670969 9.51496C0.645817 8.94648 0.733261 8.37863 0.928305 7.84386C1.12335 7.30909 1.42217 6.81789 1.80769 6.39833L6.49219 1.84733C9.27079 -0.683228 11.7986 -0.253134 13.2331 0.997141C13.8911 1.50577 14.3579 2.22076 14.5581 3.02658C14.7583 3.83241 14.6803 4.68201 14.3365 5.43812C14.2864 5.52748 14.2191 5.606 14.1383 5.66909C14.0575 5.73219 13.9649 5.7786 13.8659 5.8056C13.7669 5.83261 13.6635 5.83967 13.5617 5.82638C13.4599 5.81308 13.3619 5.7797 13.2732 5.72818C13.089 5.61245 12.9569 5.43014 12.9045 5.21944C12.8522 5.00874 12.8836 4.78602 12.9923 4.59793C13.1331 4.17414 13.1362 3.71683 13.0012 3.29118C12.8661 2.86554 12.5997 2.49326 12.24 2.22741C11.0162 1.22719 9.23066 1.47725 7.53542 3.04759L2.88101 7.55858C1.55691 8.93889 2.43964 10.5592 3.18194 11.3794C3.92424 12.1996 5.52921 13.0698 6.8834 11.6695L10.2839 8.13871C10.411 8.01713 10.5121 7.87115 10.581 7.70955C10.65 7.54796 10.6854 7.37412 10.6852 7.1985C10.6678 6.89067 10.5395 6.59944 10.324 6.37832C10.2171 6.26598 10.0875 6.17743 9.94381 6.11848C9.80013 6.05952 9.64558 6.03148 9.49028 6.0362C9.33498 6.04093 9.18243 6.0783 9.04262 6.14587C8.9028 6.21345 8.77888 6.3097 8.67896 6.42833L5.49911 9.72906C5.42958 9.80454 5.34509 9.86481 5.25098 9.90603C5.15687 9.94725 5.05521 9.96854 4.95242 9.96854C4.84963 9.96854 4.74797 9.94725 4.65386 9.90603C4.55975 9.86481 4.47526 9.80454 4.40573 9.72906C4.25504 9.57735 4.1705 9.37246 4.1705 9.15894C4.1705 8.94541 4.25504 8.74052 4.40573 8.58881L7.58557 5.28808C7.82936 5.01326 8.12891 4.79321 8.46439 4.6425C8.79987 4.49178 9.16364 4.41385 9.5316 4.41385C9.89956 4.41385 10.2633 4.49178 10.5988 4.6425C10.9343 4.79321 11.2338 5.01326 11.4776 5.28808C12.0003 5.82669 12.2883 6.54943 12.2789 7.29882C12.2695 8.04822 11.9634 8.76355 11.4275 9.28896L7.98681 12.8097C7.64751 13.1824 7.23421 13.4807 6.77314 13.6856C6.31207 13.8905 5.81331 13.9976 5.30852 14Z" fill="#C06ECC"/>
</svg>
