<svg width="16" height="16" viewBox="0 0 16 16" fill="none" xmlns="http://www.w3.org/2000/svg">
<path d="M11.83 6.41L8.65 9.59L7.59 10.65L6.53 9.59L5 8L6 7L7.59 8.53L10.77 5.35L11.83 6.41ZM16 8C16 9.58225 15.5308 11.129 14.6518 12.4446C13.7727 13.7602 12.5233 14.7855 11.0615 15.391C9.59966 15.9965 7.99113 16.155 6.43928 15.8463C4.88743 15.5376 3.46197 14.7757 2.34315 13.6569C1.22433 12.538 0.462403 11.1126 0.153721 9.56072C-0.15496 8.00887 0.00346625 6.40034 0.608967 4.93853C1.21447 3.47672 2.23985 2.22729 3.55544 1.34824C4.87103 0.469192 6.41775 0 8 0C10.1217 0 12.1566 0.842855 13.6569 2.34315C15.1571 3.84344 16 5.87827 16 8ZM14.5 8C14.4066 6.30647 13.6918 4.7069 12.4924 3.50757C11.2931 2.30824 9.69354 1.59343 8 1.5C6.30647 1.59343 4.70691 2.30824 3.50758 3.50757C2.30825 4.7069 1.59343 6.30647 1.5 8C1.59343 9.69353 2.30825 11.2931 3.50758 12.4924C4.70691 13.6918 6.30647 14.4066 8 14.5C9.69354 14.4066 11.2931 13.6918 12.4924 12.4924C13.6918 11.2931 14.4066 9.69353 14.5 8Z" fill="#C06ECC"/>
</svg>
