<svg width="15" height="15" viewBox="0 0 15 15" fill="none" xmlns="http://www.w3.org/2000/svg">
<path d="M13.7852 13.7436L9.72293 9.67202C10.5501 8.57954 10.9317 7.21388 10.7908 5.85093C10.6498 4.48798 9.99664 3.22933 8.96334 2.32925C7.93003 1.42916 6.59357 0.954727 5.22392 1.00179C3.85427 1.04885 2.55353 1.61391 1.58448 2.5828C0.615416 3.55169 0.050267 4.8522 0.00319497 6.22161C-0.043877 7.59102 0.430637 8.92726 1.33088 9.96039C2.23112 10.9935 3.48999 11.6465 4.85317 11.7875C6.21636 11.9285 7.58225 11.5469 8.67492 10.7198L12.7472 14.7814C12.8144 14.8511 12.8951 14.9065 12.9843 14.9442C13.0735 14.9819 13.1694 15.0012 13.2662 15.001C13.3632 15.0024 13.4595 14.9836 13.5488 14.9458C13.6382 14.908 13.7187 14.8521 13.7852 14.7814C13.854 14.7136 13.9087 14.6329 13.946 14.5438C13.9833 14.4547 14.0025 14.3591 14.0025 14.2625C14.0025 14.1659 13.9833 14.0703 13.946 13.9812C13.9087 13.8921 13.854 13.8114 13.7852 13.7436ZM1.49855 6.41876C1.49855 5.64309 1.7286 4.88483 2.15962 4.23988C2.59063 3.59493 3.20325 3.09226 3.92 2.79542C4.63676 2.49858 5.42545 2.42092 6.18635 2.57224C6.94725 2.72357 7.64618 3.09709 8.19476 3.64557C8.74334 4.19406 9.11693 4.89287 9.26828 5.65364C9.41963 6.41441 9.34195 7.20297 9.04506 7.91959C8.74818 8.63622 8.24541 9.24874 7.60035 9.67968C6.95529 10.1106 6.19691 10.3406 5.4211 10.3406C4.38158 10.338 3.3854 9.92395 2.65035 9.18903C1.9153 8.45411 1.50118 7.45809 1.49855 6.41876Z" fill="#818590"/>
</svg>
