<svg width="8" height="6" viewBox="0 0 8 6" fill="none" xmlns="http://www.w3.org/2000/svg">
<path d="M1.08 1.00002H6.92C7.02269 0.992979 7.12522 1.01599 7.21505 1.06626C7.30488 1.11652 7.37813 1.19185 7.42586 1.28306C7.47358 1.37427 7.49371 1.4774 7.48379 1.57985C7.47387 1.68231 7.43433 1.77966 7.37 1.86002L4.45 4.80002C4.39369 4.86387 4.32444 4.915 4.24686 4.95002C4.16927 4.98504 4.08512 5.00316 4 5.00316C3.91487 5.00316 3.83072 4.98504 3.75313 4.95002C3.67555 4.915 3.6063 4.86387 3.55 4.80002L0.629996 1.86002C0.565661 1.77966 0.52612 1.68231 0.5162 1.57985C0.50628 1.4774 0.526412 1.37427 0.574136 1.28306C0.62186 1.19185 0.695111 1.11652 0.784943 1.06626C0.874774 1.01599 0.977299 0.992979 1.08 1.00002Z" fill="#818590"/>
</svg>
